<svg xmlns="http://www.w3.org/2000/svg"  viewBox="0 0 48 48" width="48px" height="48px" baseProfile="basic"><path d="M12.959,36.962c-0.53,0-1.049-0.207-1.44-0.599l-8.921-8.922C2.212,27.058,2,26.546,2,26v-2c0-0.298,0.132-0.579,0.361-0.77	l9.226-7.656c0.517-0.523,1.39-0.696,2.153-0.38C14.506,15.511,15,16.25,15,17.078V22h30c0.552,0,1,0.447,1,1v6c0,0.553-0.448,1-1,1	H15v4.922c0,0.828-0.494,1.567-1.259,1.884C13.487,36.911,13.222,36.962,12.959,36.962z"/><path fill="#fff" d="M14,21v-5.922c0-0.926-1.119-1.389-1.774-0.735l-8.922,8.922c-0.406,0.406-0.406,1.064,0,1.47	l8.922,8.922C12.881,34.311,14,33.848,14,32.922V27l31,0v-6L14,21z"/><path d="M12.959,34.962c-0.53,0-1.049-0.207-1.44-0.599l-8.921-8.922C2.212,25.057,2,24.545,2,24s0.212-1.057,0.598-1.442	l8.921-8.921c0.585-0.586,1.458-0.76,2.222-0.442C14.506,13.511,15,14.25,15,15.078V20h30c0.552,0,1,0.447,1,1v6	c0,0.553-0.448,1-1,1H15v4.922c0,0.828-0.494,1.567-1.259,1.884C13.487,34.911,13.222,34.962,12.959,34.962z M13,15.078	l-8.989,8.895l8.922,8.977L13,27c0-0.553,0.448-1,1-1h30v-4H14c-0.552,0-1-0.447-1-1V15.078z"/></svg>